<?xml version="1.0" standalone="no"?>
<!DOCTYPE svg PUBLIC "-//W3C//DTD SVG 20010904//EN"
 "http://www.w3.org/TR/2001/REC-SVG-20010904/DTD/svg10.dtd">
<svg version="1.0" xmlns="http://www.w3.org/2000/svg"
 width="600.000000pt" height="327.000000pt" viewBox="0 0 600.000000 327.000000"
 preserveAspectRatio="xMidYMid meet">
<g transform="translate(0.000000,327.000000) scale(0.100000,-0.100000)"
fill="#000000" stroke="none">
<path d="M2360 2595 c0 -33 122 -104 250 -146 83 -27 92 -33 105 -74 6 -19 7
-19 26 4 19 23 19 23 19 2 0 -12 5 -21 10 -21 6 0 10 5 10 10 0 19 18 10 23
-11 5 -20 3 -21 -40 -14 -92 14 -292 75 -437 134 -82 33 -153 58 -158 55 -36
-22 79 -78 335 -162 l139 -46 -6 -29 c-3 -16 -6 -55 -6 -87 l0 -57 -69 -5
c-178 -13 -293 -150 -292 -350 0 -110 20 -189 79 -308 39 -81 60 -109 142
-191 75 -75 113 -104 177 -138 362 -185 797 -45 987 319 65 124 81 196 81 365
0 137 -2 158 -28 240 -16 50 -42 114 -58 144 -17 29 -29 54 -27 56 2 1 47 10
102 19 108 18 116 21 116 42 0 18 -12 17 -140 -5 l-105 -19 -26 31 -27 31 128
22 c152 26 170 31 170 49 0 23 -12 24 -75 10 -33 -8 -106 -21 -162 -30 l-102
-15 -37 25 c-47 32 -108 34 -139 5 -20 -18 -23 -19 -35 -5 -8 10 -30 15 -60
15 -40 0 -52 -4 -69 -26 -21 -26 -21 -26 -118 -19 -83 6 -102 11 -131 33 -21
16 -47 26 -68 26 -19 0 -34 3 -34 6 0 12 -51 30 -84 30 -20 0 -40 -8 -50 -19
-17 -19 -19 -19 -70 -1 -64 22 -128 54 -183 91 -47 32 -63 36 -63 14z m376
-139 c3 -8 4 -23 2 -34 -2 -16 -7 -14 -25 14 -22 33 -22 34 -2 34 11 0 22 -6
25 -14z m50 -12 c10 -40 -10 -48 -22 -9 -9 28 -8 35 2 35 8 0 17 -12 20 -26z
m120 -50 c52 -52 122 -190 149 -294 23 -89 31 -263 16 -342 -30 -156 -141
-313 -264 -373 -155 -75 -338 -24 -422 118 -58 100 -119 337 -83 325 7 -3 12
-29 12 -64 1 -75 27 -113 101 -149 48 -24 64 -27 132 -23 178 8 298 118 349
318 12 49 15 93 11 180 -5 113 -13 150 -68 286 -13 32 -7 64 11 64 6 0 31 -21
56 -46z m314 28 c0 -4 -4 -12 -9 -17 -5 -6 -11 -21 -13 -35 l-4 -25 -8 28 c-5
18 -4 32 4 42 13 16 30 20 30 7z m236 -20 c108 -79 190 -220 229 -396 25 -112
17 -283 -18 -391 -69 -211 -232 -380 -439 -457 -66 -24 -104 -31 -189 -35
-132 -7 -228 12 -337 67 -69 35 -208 137 -199 146 2 2 25 -3 51 -12 56 -19
167 -15 234 9 87 31 192 123 244 215 l30 52 52 0 c115 0 213 54 279 152 111
167 110 403 -3 576 -22 35 -40 72 -40 82 0 31 58 26 106 -8z m-186 11 c0 -5
-9 -19 -20 -33 l-20 -25 0 26 c0 14 3 29 7 32 9 9 33 9 33 0z m-305 -23 c3 -5
2 -10 -4 -10 -5 0 -13 5 -16 10 -3 6 -2 10 4 10 5 0 13 -4 16 -10z m145 -20
c51 0 56 -2 74 -33 l20 -32 6 30 7 30 13 -27 c7 -16 17 -28 21 -28 4 0 9 12
11 28 2 20 9 28 28 30 19 2 30 -6 48 -33 l22 -35 -137 0 c-206 0 -208 1 -242
74 -2 5 13 6 35 3 22 -4 64 -7 94 -7z m-367 -64 c25 -6 27 -10 27 -54 0 -60
20 -125 65 -213 19 -38 35 -77 35 -87 0 -9 -11 5 -25 32 -29 61 -85 118 -136
141 -39 18 -39 18 -39 75 0 84 9 121 29 116 9 -2 28 -7 44 -10z m85 -18 c14
-18 39 -121 46 -193 5 -55 4 -58 -8 -35 -22 39 -53 140 -60 193 -6 47 2 59 22
35z m286 -28 l41 0 17 -78 c8 -43 30 -114 48 -157 44 -109 60 -170 60 -235 0
-105 -44 -148 -153 -149 -46 -1 -48 0 -41 22 52 164 43 368 -25 547 -25 66
-25 64 -5 56 9 -3 34 -6 58 -6z m176 -10 c0 -31 49 -130 91 -185 55 -72 60
-99 32 -181 -16 -47 -72 -146 -90 -157 -4 -3 -7 27 -5 66 2 59 -3 86 -26 152
-16 44 -41 112 -55 150 -14 39 -28 91 -32 118 l-6 47 45 0 c25 0 46 -4 46 -10z
m113 -32 c18 -45 40 -149 33 -155 -6 -7 -57 67 -76 110 -35 81 -35 87 -2 87
25 0 32 -6 45 -42z m-685 -143 c40 -20 72 -40 72 -45 0 -6 -17 -1 -37 10 -62
33 -118 24 -179 -29 -22 -20 -39 -27 -56 -24 -66 13 -166 -46 -190 -113 -18
-51 -28 -41 -14 14 38 143 132 219 272 221 50 1 73 -5 132 -34z m54 -81 c36
-23 58 -67 58 -117 0 -15 -3 -16 -20 -7 -12 6 -40 8 -68 4 -40 -5 -50 -3 -66
15 -22 24 -36 27 -36 8 0 -31 38 -50 98 -48 78 1 91 -12 63 -67 -43 -84 -139
-143 -246 -150 -136 -8 -155 25 -63 108 39 36 50 52 51 79 1 19 -3 36 -10 38
-9 3 -13 -6 -13 -25 0 -24 -10 -39 -46 -68 -25 -21 -52 -51 -61 -68 l-16 -30
-30 34 c-27 30 -29 37 -24 87 11 104 61 154 159 161 53 3 68 9 94 34 55 52
108 56 176 12z m97 -81 c0 -5 -4 -17 -9 -28 -8 -18 -9 -17 -9 8 -1 15 4 27 9
27 6 0 10 -3 9 -7z m441 -213 c0 -5 -5 -10 -11 -10 -5 0 -7 5 -4 10 3 6 8 10
11 10 2 0 4 -4 4 -10z m-828 -333 c11 -4 15 -12 12 -22 -5 -12 -10 -11 -25 9
-10 13 -19 28 -19 33 0 4 4 3 8 -3 4 -6 15 -13 24 -17z"/>
<path d="M2732 1940 c-9 -15 -19 -19 -37 -14 -15 4 -25 2 -25 -5 0 -16 45 -24
69 -11 12 6 21 20 21 30 0 26 -12 25 -28 0z"/>
<path d="M2466 1834 c-4 -11 -14 -15 -31 -11 -32 6 -42 -9 -16 -22 32 -18 81
10 81 45 0 12 -29 2 -34 -12z"/>
<path d="M2589 1810 c-24 -20 -24 -20 -5 -35 11 -8 26 -15 33 -15 7 0 13 -7
13 -15 0 -11 -11 -15 -40 -15 -42 0 -54 -14 -20 -25 41 -13 160 43 160 76 0
16 -26 10 -45 -11 -21 -23 -39 -17 -25 10 5 10 10 26 10 34 0 23 -53 20 -81
-4z"/>
</g>
</svg>
